<?xml version="1.0" encoding="utf-8" ?>
<svg xmlns="http://www.w3.org/2000/svg"
xmlns:xlink="http://www.w3.org/1999/xlink" width="22" height="22">
<path fill="#DC2626" transform="scale(0.0429688 0.0429688)"
  d="M462.248 32.0693C467.022 31.9007 471.1 32.9189 474.746 36.1463C477.943 38.9769 479.698 43.0456 479.909 47.2733C480.098 51.0665 478.875 54.7773 476.543 57.7491C474.772 60.0047 472.582 61.9918 470.556 64.0203L460.438 74.1357L426.701 107.874L328.151 206.475L295.929 238.695L278.702 256.065L293.656 270.955L323.207 300.538L399.492 376.75L453.172 430.431L469.965 447.203C471.985 449.259 474.216 451.214 476.078 453.408C478.385 456.125 479.601 459.136 479.952 462.689C480.37 466.93 478.803 471.237 476.065 474.441C473.243 477.744 469.303 479.629 465.003 479.92C461.54 480.154 457.761 479.273 454.961 477.163C452.555 475.35 450.493 473.095 448.38 470.958L439.623 462.188L407.761 430.336L306.03 328.709L271.935 294.594C266.653 289.346 261.521 283.665 255.909 278.785L207.361 327.267L114.769 419.861L77.4283 457.194L65.8414 468.778C63.5596 471.066 61.3194 473.512 58.9018 475.653C56.7019 477.601 54.4614 478.68 51.7061 479.644C48.7645 480.079 46.0546 480.135 43.1668 479.295C39.3279 478.179 35.4195 474.69 33.6708 471.136C31.9697 467.679 31.5795 462.888 32.8453 459.222L32.9697 458.875C33.8231 456.324 35.1377 454.337 36.9403 452.361L46.8418 442.404L65.839 423.404L123.849 365.375L195.209 293.946L233.208 256.077C232.621 255.058 231.345 254.053 230.496 253.195L224.136 246.82L200.068 222.744L87.7133 110.292L52.7295 75.2931L42.5107 65.079C40.3692 62.9481 38.0383 60.848 36.1338 58.5066C34.2194 56.1531 33.154 53.2062 33.0118 50.1791C32.8026 45.7274 33.9745 41.3732 37.051 38.0337L37.2883 37.7822C39.9634 34.9107 43.6698 33.2565 47.5887 33.0081C51.8864 32.7357 55.4299 33.9144 58.8611 36.4833C60.8475 37.9704 62.626 39.9999 64.3832 41.7612L73.4316 50.8122L105.191 82.5493L206.272 183.583L238.895 216.203C244.555 221.861 250.074 227.957 256.087 233.22L271.375 217.824L298.198 190.971L377.618 111.507L428.239 60.8766L444.362 44.7352C447.334 41.7442 450.253 38.4671 453.476 35.7453C456.136 33.4985 458.863 32.6272 462.248 32.0693Z" />
</svg>
