<svg width="137" height="30" viewBox="0 0 137 30" fill="none" xmlns="http://www.w3.org/2000/svg">
  <path d="M0 5C0 2.23858 2.23858 0 5 0H132C134.761 0 137 2.23858 137 5V25C137 27.7614 134.761 30 132 30H5C2.23858 30 0 27.7614 0 25V5Z" fill="#453C51"/>
  <path d="M127 13.245L126.999 13.2493C126.991 13.276 126.99 13.3031 126.984 13.33C126.971 13.3853 126.951 13.447 126.927 13.4984L126.923 13.5075L126.878 13.5839C126.834 13.6644 126.761 13.7336 126.697 13.7978L126.511 13.9834L126.038 14.457L123.069 17.4258L122.717 17.7773C122.66 17.835 122.603 17.8979 122.542 17.9516C122.458 18.0251 122.355 18.087 122.247 18.1167C122.195 18.1308 122.145 18.1361 122.093 18.1429C122.059 18.1473 122.026 18.1546 121.991 18.1537C121.964 18.1531 121.94 18.1462 121.913 18.1424C121.865 18.1354 121.819 18.1311 121.771 18.1197C121.721 18.1075 121.669 18.0869 121.624 18.0615C121.597 18.0469 121.571 18.0349 121.545 18.0181C121.475 17.9717 121.412 17.9125 121.353 17.8539L121.345 17.8428C121.313 17.7998 121.268 17.7606 121.23 17.7226L121.02 17.5124L120.308 16.8001L117.928 14.4192L117.48 13.9721L117.309 13.8012C117.244 13.7361 117.171 13.6637 117.126 13.5825C117.115 13.5643 117.103 13.5475 117.093 13.5287C117.084 13.5096 117.077 13.488 117.066 13.4702C117.056 13.4557 117.059 13.4384 117.054 13.4227C117.051 13.4158 117.044 13.4118 117.042 13.4051C117.038 13.3958 117.038 13.3838 117.037 13.3739C117.036 13.3624 117.037 13.3574 117.028 13.3485C117.006 13.3244 117.013 13.2623 117 13.2304V13.0681C117.006 13.0436 117.008 13.0179 117.014 12.994C117.021 12.9661 117.035 12.9394 117.037 12.9105C117.039 12.8824 117.054 12.8571 117.061 12.8301C117.072 12.79 117.105 12.7518 117.123 12.7141C117.132 12.6958 117.147 12.6795 117.16 12.6639C117.195 12.6201 117.234 12.5809 117.273 12.5409L117.494 12.3203L117.677 12.1376C117.723 12.0919 117.768 12.0435 117.82 12.0041C117.88 11.9575 117.958 11.9179 118.031 11.8935C118.102 11.8695 118.17 11.8659 118.243 11.8512C118.339 11.8318 118.55 11.8691 118.639 11.9165C118.658 11.9262 118.676 11.9331 118.693 11.9458C118.717 11.9641 118.745 11.9759 118.77 11.995C118.903 12.1002 119.021 12.2243 119.141 12.3444L119.602 12.8055L121.196 14.3982L121.701 14.9028C121.799 15.0016 121.896 15.1066 122.002 15.1972L123.725 13.4766L123.764 13.4377L123.803 13.3986L123.842 13.3595L123.881 13.3205L123.92 13.2814L123.959 13.2424L123.998 13.2033L124.038 13.1643L124.057 13.1436L124.096 13.1045L124.135 13.0655L124.174 13.0264L124.213 12.9874L124.252 12.9483L124.291 12.9092L124.33 12.8701L124.368 12.8326L124.407 12.7935L124.446 12.7544L124.485 12.7154L124.524 12.6763L124.563 12.6373L124.602 12.5982L124.641 12.5591L124.681 12.5201L124.72 12.481L124.759 12.442L124.798 12.4029L124.837 12.3638L124.876 12.3248L124.915 12.2858L124.954 12.2467L124.993 12.2076C125.032 12.1648 125.08 12.1157 125.128 12.0836C125.171 12.0546 125.202 12.0117 125.247 11.9848L125.252 11.9802C125.291 11.9469 125.343 11.9285 125.388 11.9047C125.402 11.8967 125.419 11.8942 125.435 11.8896C125.504 11.8697 125.575 11.8597 125.646 11.8482C125.685 11.8419 125.726 11.8454 125.764 11.8529C125.81 11.8619 125.855 11.8615 125.901 11.8738L125.977 11.8958C126.031 11.9134 126.093 11.9436 126.14 11.9769L126.153 11.9849C126.211 12.0204 126.264 12.082 126.313 12.1306L126.543 12.3611C126.635 12.4532 126.739 12.5436 126.821 12.6437C126.863 12.6939 126.899 12.7509 126.93 12.808C126.96 12.8643 126.973 12.9314 126.989 12.9931C126.993 13.0084 126.994 13.0242 127 13.039V13.245Z" fill="#FEFEFE"/>
  <path d="M10.7516 19.1958L25.2569 19.1833C24.8508 19.7622 24.4979 20.3217 24.0156 20.8493C23.1123 21.8377 21.6608 22.6529 20.3915 23.0305C19.9805 23.1528 19.5309 23.2189 19.1085 23.2935C17.154 23.6389 14.8145 22.9741 13.2166 21.8515C12.2455 21.1692 11.35 20.2245 10.7516 19.1958Z" fill="#EE3A45"/>
  <path d="M10.7548 10.8332C11.835 8.90894 13.5845 7.54787 15.7052 6.95069C17.0445 6.57354 18.8096 6.53046 20.1615 6.90362C20.9408 7.11873 21.6874 7.46748 22.3891 7.8654C22.7693 8.08102 23.048 8.35065 23.3806 8.62015C23.5714 8.77477 23.7787 8.88385 23.9493 9.06633C24.1499 9.28104 24.3011 9.53798 24.4942 9.75819C24.7581 10.0591 25.123 10.4335 25.244 10.8276L10.7548 10.8332Z" fill="#EE3A45"/>
  <path d="M10.7548 10.8332L25.244 10.8276C25.5503 11.4624 25.8795 12.0462 26.0887 12.7299C26.1613 12.9672 26.1733 13.2182 26.2166 13.4616C26.4631 14.8458 26.4001 16.397 25.9347 17.7313C25.7714 18.1996 25.5364 18.7767 25.2569 19.1833L10.7516 19.1958C10.6952 19.0243 10.555 18.838 10.4749 18.6706C10.2215 18.1402 9.97614 17.5578 9.85907 16.9791C9.45204 14.9671 9.5885 12.5848 10.7548 10.8332Z" fill="#FED700"/>
  <path d="M40.804 17.548V19H34.888V10.48H40.696V11.932H36.544V13.984H40.132V15.328H36.544V17.548H40.804ZM44.2316 19.12C43.6956 19.12 43.1836 19.032 42.6956 18.856C42.2076 18.68 41.7876 18.42 41.4356 18.076L42.0116 17.032C42.3876 17.336 42.7556 17.56 43.1156 17.704C43.4836 17.848 43.8356 17.92 44.1716 17.92C44.4836 17.92 44.7316 17.864 44.9156 17.752C45.1076 17.64 45.2036 17.472 45.2036 17.248C45.2036 17.096 45.1516 16.98 45.0476 16.9C44.9436 16.812 44.7916 16.736 44.5916 16.672C44.3996 16.608 44.1636 16.536 43.8836 16.456C43.4196 16.304 43.0316 16.156 42.7196 16.012C42.4076 15.868 42.1716 15.688 42.0116 15.472C41.8596 15.248 41.7836 14.964 41.7836 14.62C41.7836 14.204 41.8876 13.848 42.0956 13.552C42.3116 13.248 42.6076 13.012 42.9836 12.844C43.3676 12.676 43.8156 12.592 44.3276 12.592C44.7756 12.592 45.1996 12.664 45.5996 12.808C45.9996 12.944 46.3636 13.168 46.6916 13.48L46.0436 14.5C45.7236 14.252 45.4196 14.072 45.1316 13.96C44.8436 13.84 44.5516 13.78 44.2556 13.78C44.0876 13.78 43.9276 13.8 43.7756 13.84C43.6316 13.88 43.5116 13.948 43.4156 14.044C43.3276 14.132 43.2836 14.26 43.2836 14.428C43.2836 14.58 43.3236 14.7 43.4036 14.788C43.4916 14.868 43.6196 14.94 43.7876 15.004C43.9636 15.068 44.1756 15.14 44.4236 15.22C44.9276 15.364 45.3516 15.512 45.6956 15.664C46.0476 15.816 46.3116 16.004 46.4876 16.228C46.6636 16.444 46.7516 16.744 46.7516 17.128C46.7516 17.752 46.5236 18.24 46.0676 18.592C45.6116 18.944 44.9996 19.12 44.2316 19.12ZM51.6133 19.12C51.1253 19.12 50.6933 19.012 50.3173 18.796C49.9493 18.572 49.6613 18.272 49.4533 17.896V21.556H47.8453V12.712H49.2493V13.792C49.4893 13.424 49.7933 13.136 50.1613 12.928C50.5293 12.712 50.9493 12.604 51.4213 12.604C51.8453 12.604 52.2333 12.688 52.5853 12.856C52.9453 13.024 53.2573 13.26 53.5213 13.564C53.7853 13.86 53.9893 14.204 54.1333 14.596C54.2853 14.98 54.3613 15.396 54.3613 15.844C54.3613 16.452 54.2413 17.004 54.0013 17.5C53.7693 17.996 53.4453 18.392 53.0293 18.688C52.6213 18.976 52.1493 19.12 51.6133 19.12ZM51.0733 17.752C51.3213 17.752 51.5453 17.7 51.7453 17.596C51.9453 17.492 52.1173 17.352 52.2613 17.176C52.4133 16.992 52.5253 16.788 52.5973 16.564C52.6773 16.332 52.7173 16.092 52.7173 15.844C52.7173 15.58 52.6733 15.336 52.5853 15.112C52.5053 14.888 52.3853 14.692 52.2253 14.524C52.0653 14.348 51.8773 14.212 51.6613 14.116C51.4533 14.02 51.2253 13.972 50.9773 13.972C50.8253 13.972 50.6693 14 50.5093 14.056C50.3573 14.104 50.2093 14.176 50.0653 14.272C49.9213 14.368 49.7933 14.48 49.6813 14.608C49.5773 14.736 49.5013 14.876 49.4533 15.028V16.504C49.5493 16.736 49.6773 16.948 49.8373 17.14C50.0053 17.332 50.1973 17.484 50.4133 17.596C50.6293 17.7 50.8493 17.752 51.0733 17.752ZM55.0188 17.14C55.0188 16.732 55.1308 16.376 55.3548 16.072C55.5868 15.76 55.9068 15.52 56.3148 15.352C56.7228 15.184 57.1908 15.1 57.7188 15.1C57.9828 15.1 58.2508 15.12 58.5228 15.16C58.7948 15.2 59.0308 15.264 59.2308 15.352V15.016C59.2308 14.616 59.1108 14.308 58.8708 14.092C58.6388 13.876 58.2908 13.768 57.8268 13.768C57.4828 13.768 57.1548 13.828 56.8428 13.948C56.5308 14.068 56.2028 14.244 55.8588 14.476L55.3428 13.42C55.7588 13.148 56.1828 12.944 56.6148 12.808C57.0548 12.672 57.5148 12.604 57.9948 12.604C58.8908 12.604 59.5868 12.828 60.0828 13.276C60.5868 13.724 60.8388 14.364 60.8388 15.196V17.2C60.8388 17.368 60.8668 17.488 60.9228 17.56C60.9868 17.632 61.0868 17.676 61.2228 17.692V19C61.0788 19.024 60.9468 19.044 60.8268 19.06C60.7148 19.076 60.6188 19.084 60.5388 19.084C60.2188 19.084 59.9748 19.012 59.8068 18.868C59.6468 18.724 59.5468 18.548 59.5068 18.34L59.4708 18.016C59.1988 18.368 58.8588 18.64 58.4508 18.832C58.0428 19.024 57.6268 19.12 57.2028 19.12C56.7868 19.12 56.4108 19.036 56.0748 18.868C55.7468 18.692 55.4868 18.456 55.2948 18.16C55.1108 17.856 55.0188 17.516 55.0188 17.14ZM58.9308 17.464C59.0188 17.368 59.0908 17.272 59.1468 17.176C59.2028 17.08 59.2308 16.992 59.2308 16.912V16.276C59.0388 16.196 58.8308 16.136 58.6068 16.096C58.3828 16.048 58.1708 16.024 57.9708 16.024C57.5548 16.024 57.2108 16.116 56.9388 16.3C56.6748 16.476 56.5428 16.712 56.5428 17.008C56.5428 17.168 56.5868 17.32 56.6748 17.464C56.7628 17.608 56.8908 17.724 57.0588 17.812C57.2268 17.9 57.4268 17.944 57.6588 17.944C57.8988 17.944 58.1348 17.9 58.3668 17.812C58.5988 17.716 58.7868 17.6 58.9308 17.464ZM68.1854 19H66.5774V15.472C66.5774 14.968 66.4894 14.6 66.3134 14.368C66.1374 14.136 65.8934 14.02 65.5814 14.02C65.3654 14.02 65.1454 14.076 64.9214 14.188C64.7054 14.3 64.5094 14.456 64.3334 14.656C64.1574 14.848 64.0294 15.072 63.9494 15.328V19H62.3414V12.712H63.7934V13.876C63.9534 13.604 64.1574 13.376 64.4054 13.192C64.6534 13 64.9374 12.856 65.2574 12.76C65.5854 12.656 65.9294 12.604 66.2894 12.604C66.6814 12.604 67.0014 12.676 67.2494 12.82C67.5054 12.956 67.6974 13.144 67.8254 13.384C67.9614 13.616 68.0534 13.88 68.1014 14.176C68.1574 14.472 68.1854 14.772 68.1854 15.076V19ZM66.1934 11.776C65.9534 11.776 65.7454 11.732 65.5694 11.644C65.4014 11.548 65.2454 11.456 65.1014 11.368C64.9574 11.28 64.7974 11.236 64.6214 11.236C64.4454 11.236 64.3134 11.284 64.2254 11.38C64.1454 11.468 64.0934 11.56 64.0694 11.656C64.0534 11.752 64.0454 11.804 64.0454 11.812H63.1574C63.1574 11.74 63.1814 11.62 63.2294 11.452C63.2774 11.284 63.3534 11.112 63.4574 10.936C63.5694 10.752 63.7134 10.596 63.8894 10.468C64.0734 10.34 64.2974 10.276 64.5614 10.276C64.8094 10.276 65.0134 10.324 65.1734 10.42C65.3334 10.516 65.4854 10.612 65.6294 10.708C65.7814 10.796 65.9534 10.84 66.1454 10.84C66.3374 10.84 66.4774 10.792 66.5654 10.696C66.6534 10.6 66.7094 10.504 66.7334 10.408C66.7654 10.312 66.7814 10.256 66.7814 10.24H67.6694C67.6694 10.296 67.6454 10.404 67.5974 10.564C67.5494 10.724 67.4654 10.9 67.3454 11.092C67.2334 11.276 67.0814 11.436 66.8894 11.572C66.7054 11.708 66.4734 11.776 66.1934 11.776ZM72.4876 19.12C71.9756 19.12 71.5156 19.036 71.1076 18.868C70.6996 18.692 70.3516 18.452 70.0636 18.148C69.7836 17.844 69.5676 17.496 69.4156 17.104C69.2636 16.712 69.1876 16.3 69.1876 15.868C69.1876 15.428 69.2636 15.012 69.4156 14.62C69.5676 14.228 69.7836 13.88 70.0636 13.576C70.3516 13.272 70.6996 13.036 71.1076 12.868C71.5156 12.692 71.9756 12.604 72.4876 12.604C72.9996 12.604 73.4556 12.692 73.8556 12.868C74.2636 13.036 74.6116 13.272 74.8996 13.576C75.1876 13.88 75.4036 14.228 75.5476 14.62C75.6996 15.012 75.7756 15.428 75.7756 15.868C75.7756 16.3 75.6996 16.712 75.5476 17.104C75.4036 17.496 75.1876 17.844 74.8996 18.148C74.6196 18.452 74.2756 18.692 73.8676 18.868C73.4596 19.036 72.9996 19.12 72.4876 19.12ZM70.8436 15.868C70.8436 16.236 70.9156 16.564 71.0596 16.852C71.2036 17.132 71.3996 17.352 71.6476 17.512C71.8956 17.672 72.1756 17.752 72.4876 17.752C72.7916 17.752 73.0676 17.672 73.3156 17.512C73.5636 17.344 73.7596 17.12 73.9036 16.84C74.0556 16.552 74.1316 16.224 74.1316 15.856C74.1316 15.496 74.0556 15.172 73.9036 14.884C73.7596 14.596 73.5636 14.372 73.3156 14.212C73.0676 14.052 72.7916 13.972 72.4876 13.972C72.1756 13.972 71.8956 14.056 71.6476 14.224C71.3996 14.384 71.2036 14.608 71.0596 14.896C70.9156 15.176 70.8436 15.5 70.8436 15.868ZM76.8489 10.24H78.4569V16.984C78.4569 17.272 78.5049 17.468 78.6009 17.572C78.6969 17.668 78.8289 17.716 78.9969 17.716C79.1249 17.716 79.2569 17.7 79.3929 17.668C79.5289 17.636 79.6489 17.596 79.7529 17.548L79.9689 18.772C79.7529 18.876 79.5009 18.956 79.2129 19.012C78.9249 19.068 78.6649 19.096 78.4329 19.096C77.9289 19.096 77.5369 18.964 77.2569 18.7C76.9849 18.428 76.8489 18.044 76.8489 17.548V10.24Z" fill="white"/>
  </svg>
  