<svg class="w-12 h-12" width="94" height="82" viewBox="0 0 94 82" fill="none" xmlns="http://www.w3.org/2000/svg">
        <g filter="url(#filter0_d_66_21)">
        <path d="M74.6151 36.3355H74.5771C74.0683 21.2892 61.9112 9.3 47.0322 9.29594C32.0508 9.31218 19.8198 21.4783 19.4832 36.6744L19.4831 36.6852C19.4794 39.817 19.4823 43.936 19.4854 48.4508C19.4911 56.5297 19.4976 65.8763 19.4687 73.1027L19.0725 73.1039C18.5198 73.1057 17.7543 73.1078 16.903 73.1096C15.2 73.1133 13.1548 73.116 11.7825 73.1116C7.74449 73.0987 4.78502 69.4567 4.44804 66.0254C3.83281 59.7607 3.86908 49.0542 4.44708 44.0716C4.70253 41.8694 5.43332 40.4704 6.38157 39.5046C7.34098 38.5274 8.56296 37.9517 9.88238 37.4695C10.1359 37.3768 10.3401 37.2588 10.4913 37.1038C10.6518 36.9394 10.726 36.7607 10.7571 36.5995L10.765 36.558L10.7661 36.5156C11.2744 16.522 27.3584 0.539328 47.0784 0.517761C66.8759 0.523249 83.0229 16.6169 83.4282 36.7159L83.4317 36.8894L83.5395 37.0243C83.6934 37.2168 83.917 37.3602 84.216 37.4695C85.5354 37.9517 86.7575 38.5274 87.7169 39.5046C88.6652 40.4704 89.3959 41.8694 89.6513 44.0716C90.2283 49.0466 89.9898 60.182 89.6488 66.0456C89.4505 69.4547 86.3689 73.0986 82.3162 73.1116C80.944 73.116 78.8987 73.1133 77.1957 73.1096C76.3444 73.1078 75.5789 73.1057 75.0263 73.1039L74.63 73.1027C74.6011 65.8634 74.6076 56.5106 74.6132 48.4318C74.6163 43.9978 74.6191 39.9477 74.6156 36.8414L74.6151 36.3355Z" fill="#FBFBFB"/>
        <path d="M67.6754 36.5667C65.8339 36.5666 64.341 38.0793 64.341 39.9453C64.3412 49.8825 64.341 59.8398 64.341 69.7651C64.341 71.6311 65.8339 73.1438 67.6754 73.1437C69.5167 73.1436 71.0093 71.631 71.0094 69.7651C71.0098 59.8391 71.0068 49.8826 71.0094 39.9453C71.0093 38.0794 69.5167 36.5668 67.6754 36.5667Z" fill="#01FBFD" fill-opacity="0.988235"/>
        <path d="M25.4376 36.5667C23.5962 36.5666 22.1033 38.0793 22.1033 39.9453C22.1035 49.8825 22.1033 59.8398 22.1033 69.7651C22.1033 71.6311 23.5962 73.1438 25.4376 73.1437C27.2789 73.1436 28.7716 71.631 28.7716 69.7651C28.7721 59.8391 28.7688 49.8826 28.7716 39.9453C28.7716 38.0794 27.2789 36.5668 25.4376 36.5667Z" fill="#9B6CFE"/>
        <path d="M37.4938 55.456C37.4937 56.0742 37.9932 56.5754 38.6095 56.5754C41.891 56.5753 51.0614 56.5754 54.339 56.5754C54.9552 56.5754 55.4547 56.0742 55.4547 55.456C55.4547 54.8379 54.9552 54.3368 54.339 54.3368C51.0612 54.3367 41.891 54.3374 38.6095 54.3368C37.9933 54.3368 37.4938 54.8379 37.4938 55.456Z" fill="#01FBFD" fill-opacity="0.988235"/>
        <path d="M37.4938 49.4051C37.4937 50.0232 37.9932 50.5244 38.6095 50.5244C41.891 50.5243 51.0614 50.5244 54.339 50.5244C54.9552 50.5244 55.4547 50.0232 55.4547 49.4051C55.4547 48.7869 54.9552 48.2859 54.339 48.2858C51.0612 48.2857 41.891 48.2865 38.6095 48.2858C37.9933 48.2859 37.4938 48.7869 37.4938 49.4051Z" fill="#9B6CFE"/>
        <path d="M32.2542 45.9007V58.5672C32.2542 59.1174 32.3612 59.6622 32.5692 60.1704C32.7772 60.6786 33.0821 61.1403 33.4664 61.5291C33.8507 61.9179 34.3069 62.2262 34.8089 62.4362C35.3109 62.6463 35.8488 62.7541 36.3919 62.7534L49.2528 62.7371C49.3745 62.7369 49.5439 62.8063 49.6316 62.8917C50.996 64.2222 54.3505 67.4098 55.7168 68.7328C55.8047 68.8179 55.8778 68.7871 55.8804 68.664L55.9938 63.1321C55.9958 63.038 56.0339 62.9484 56.1001 62.8824C56.1663 62.8164 56.2554 62.7792 56.3483 62.7788C57.4914 62.771 58.585 62.3049 59.3898 61.4825C60.1945 60.6601 60.645 59.5483 60.6426 58.3904V45.9007C60.6426 45.3503 60.5356 44.8053 60.3276 44.2967C60.1197 43.7882 59.8149 43.3262 59.4307 42.937C59.0464 42.5478 58.5903 42.239 58.0883 42.0284C57.5862 41.8178 57.0482 41.7093 56.5048 41.7094L36.3919 41.7094C35.2945 41.7094 34.2421 42.151 33.4661 42.937C32.6901 43.723 32.2542 44.7891 32.2542 45.9007Z" stroke="#FBFBFB" stroke-width="2" stroke-linecap="round"/>
        </g>
        <defs>
        <filter id="filter0_d_66_21" x="0" y="0.517761" width="94.0001" height="80.6259" filterUnits="userSpaceOnUse" color-interpolation-filters="sRGB">
        <feFlood flood-opacity="0" result="BackgroundImageFix"/>
        <feColorMatrix in="SourceAlpha" type="matrix" values="0 0 0 0 0 0 0 0 0 0 0 0 0 0 0 0 0 0 127 0" result="hardAlpha"/>
        <feOffset dx="2" dy="4"/>
        <feGaussianBlur stdDeviation="2"/>
        <feComposite in2="hardAlpha" operator="out"/>
        <feColorMatrix type="matrix" values="0 0 0 0 0 0 0 0 0 0 0 0 0 0 0 0 0 0 0.25 0"/>
        <feBlend mode="normal" in2="BackgroundImageFix" result="effect1_dropShadow_66_21"/>
        <feBlend mode="normal" in="SourceGraphic" in2="effect1_dropShadow_66_21" result="shape"/>
        </filter>
        </defs>
        </svg>
