<svg width="926" height="241" viewBox="0 0 926 241" fill="none" xmlns="http://www.w3.org/2000/svg">
  <path d="M41.168 0.528073L54.188 0.528073L65.1 30.4121L76.136 0.528073L89.156 0.528073L74.028 39.7121L87.172 72.0761L114.576 0.156071L129.828 0.156071L93.744 88.1961H81.716L65.224 48.7641L48.608 88.1961H36.456L0.496 0.156071L15.624 0.156071L43.152 72.0761L56.296 39.7121L41.168 0.528073ZM212.509 0.156071V88.1961H198.497V49.3841L154.105 49.3841V88.1961H140.217V0.156071L154.105 0.156071V36.9841L198.497 36.9841V0.156071L212.509 0.156071ZM292.757 75.9201V88.1961H232.369V0.156071L291.641 0.156071V12.4321L246.257 12.4321V37.4801H285.565V49.0121H246.257V75.9201H292.757ZM320.972 25.9481V88.1961H307.084V0.156071L318.492 0.156071L368.34 63.7681V0.280069L382.352 0.280069V88.1961H370.2L320.972 25.9481Z" fill="#FBFBFB" style="mix-blend-mode:multiply"/>
  <path d="M677.064 211.479L677.064 202.029L698.754 194.109L677.064 186.099L677.064 176.649L705.504 187.629L728.994 178.089L676.794 158.199L676.794 147.129L740.694 173.319L740.694 182.049L712.074 194.019L740.694 206.079L740.694 214.899L676.794 240.999L676.794 230.019L728.994 210.039L705.504 200.499L677.064 211.479ZM676.794 87.1191L740.694 87.1191L740.694 97.2891L712.524 97.2892L712.524 129.509L740.694 129.509L740.694 139.589L676.794 139.589L676.794 129.509L703.524 129.509L703.524 97.2892L676.794 97.2892L676.794 87.1191ZM741.144 46.1544C741.144 50.7744 740.244 54.9444 738.444 58.6644C736.644 62.3844 734.214 65.5944 731.154 68.2944C728.034 70.9944 724.554 73.0944 720.714 74.5944C716.814 76.0344 712.824 76.7544 708.744 76.7544C704.484 76.7544 700.434 75.9744 696.594 74.4144C692.694 72.8544 689.244 70.6944 686.244 67.9344C683.184 65.1744 680.784 61.9344 679.044 58.2144C677.244 54.4344 676.344 50.3544 676.344 45.9744C676.344 41.4144 677.274 37.2744 679.134 33.5544C680.994 29.7744 683.484 26.5644 686.604 23.9244C689.724 21.2244 693.204 19.1544 697.044 17.7144C700.884 16.2144 704.814 15.4644 708.834 15.4644C713.094 15.4644 717.174 16.2444 721.074 17.8044C724.914 19.3044 728.364 21.4344 731.424 24.1944C734.424 26.9544 736.794 30.2244 738.534 34.0044C740.274 37.7244 741.144 41.7744 741.144 46.1544ZM708.744 66.4944C711.744 66.4944 714.654 66.0144 717.474 65.0544C720.294 64.0944 722.814 62.7444 725.034 61.0044C727.194 59.2044 728.904 57.0444 730.164 54.5244C731.424 52.0044 732.054 49.1844 732.054 46.0644C732.054 42.8244 731.394 39.9444 730.074 37.4244C728.754 34.9044 726.984 32.8044 724.764 31.1244C722.484 29.3844 719.964 28.0644 717.204 27.1644C714.384 26.2644 711.564 25.8144 708.744 25.8144C705.744 25.8144 702.864 26.2944 700.104 27.2544C697.284 28.1544 694.794 29.5044 692.634 31.3044C690.414 33.1044 688.674 35.2644 687.414 37.7844C686.154 40.2444 685.524 43.0044 685.524 46.0644C685.524 49.3044 686.184 52.1844 687.504 54.7044C688.824 57.2244 690.594 59.3544 692.814 61.0944C695.034 62.8344 697.524 64.1844 700.284 65.1444C703.044 66.0444 705.864 66.4944 708.744 66.4944Z" fill="#FBFBFB" style="mix-blend-mode:multiply"/>
  <path d="M462.942 21.752H469.662L475.294 37.176L480.99 21.752H487.71L479.902 41.976L486.686 58.68L500.83 21.56H508.702L490.078 67H483.87L475.358 46.648L466.782 67H460.51L441.95 21.56H449.758L463.966 58.68L470.75 41.976L462.942 21.752ZM551.376 21.56V67H544.144V46.968H521.232V67H514.064V21.56H521.232V40.568H544.144V21.56H551.376ZM574.747 21.56H581.531L599.195 67H591.643L586.843 54.648H569.307L564.571 67H556.955L574.747 21.56ZM585.435 49.336L578.139 29.432L570.587 49.336H585.435ZM633.908 27.896H618.804V67H611.572V27.896H596.404V21.56H633.908V27.896Z" fill="#FBFBFB" style="mix-blend-mode:multiply"/>
  <path d="M72.1425 113.052H89.3625L103.794 152.576L118.39 113.052H135.61L115.602 164.876L132.986 207.68L169.23 112.56H189.402L141.678 229H125.77L103.958 176.848L81.9825 229H65.9105L18.3505 112.56H38.3585L74.7665 207.68L92.1505 164.876L72.1425 113.052ZM298.755 112.56V229H280.223V177.668H221.511V229H203.143V112.56H221.511V161.268H280.223V112.56H298.755ZM404.889 212.764V229H325.021V112.56L403.413 112.56V128.796H343.389V161.924H395.377V177.176H343.389V212.764H404.889ZM423.838 229V112.56H474.514C479.762 112.56 484.573 113.653 488.946 115.84C493.319 118.027 497.091 120.924 500.262 124.532C503.542 128.14 506.057 132.185 507.806 136.668C509.665 141.151 510.594 145.743 510.594 150.444C510.594 155.583 509.665 160.503 507.806 165.204C505.947 169.905 503.269 173.951 499.77 177.34C496.381 180.729 492.39 183.189 487.798 184.72L515.186 229H494.522L469.266 188.492H442.206V229H423.838ZM442.206 172.256H474.35C477.739 172.256 480.746 171.272 483.37 169.304C485.994 167.336 488.071 164.712 489.602 161.432C491.133 158.043 491.898 154.38 491.898 150.444C491.898 146.399 491.023 142.791 489.274 139.62C487.525 136.34 485.229 133.716 482.386 131.748C479.653 129.78 476.646 128.796 473.366 128.796H442.206V172.256ZM612.132 212.764V229H532.264V112.56H610.656V128.796H550.632V161.924H602.62V177.176H550.632V212.764H612.132Z" fill="#FBFBFB" style="mix-blend-mode:multiply"/>
  <path d="M831.594 174.7C831.594 167.7 832.394 161.3 833.994 155.5C835.594 149.7 838.194 144.4 841.794 139.6C845.394 134.6 850.294 130.2 856.494 126.4C859.894 124.4 863.894 122.2 868.494 119.8C873.094 117.2 877.494 114.2 881.694 110.8C885.894 107.4 889.394 103.4 892.194 98.8C895.194 94.2 896.694 88.8 896.694 82.6C896.694 76 895.094 70.5 891.894 66.1C888.694 61.5 884.594 58.1 879.594 55.9C874.794 53.5 869.494 52.3 863.694 52.3C857.494 52.3 851.794 53.6 846.594 56.2C841.394 58.8 836.894 62.1 833.094 66.1C829.294 70.1 826.094 74.3 823.494 78.7L801.894 64C805.494 55.8 810.494 48.8 816.894 43C823.294 37.2 830.594 32.8 838.794 29.8C846.994 26.8 855.594 25.3 864.594 25.3C871.994 25.3 879.294 26.5 886.494 28.9C893.894 31.1 900.494 34.6 906.294 39.4C912.094 44.2 916.694 50.3 920.094 57.7C923.694 64.9 925.494 73.6 925.494 83.8C925.494 90.8 924.594 96.9 922.794 102.1C921.194 107.1 918.794 111.6 915.594 115.6C912.394 119.6 908.694 123.2 904.494 126.4C900.294 129.4 895.694 132.3 890.694 135.1C885.694 138.1 880.794 141.2 875.994 144.4C871.194 147.4 867.194 151.2 863.994 155.8C860.794 160.4 859.194 166.7 859.194 174.7H831.594ZM832.494 241V203.2H859.794V241H832.494Z" fill="#FBFBFB" style="mix-blend-mode:multiply"/>
  </svg>
